<?xml version="1.0" encoding="utf-8"?>
<!-- Generator: Adobe Illustrator 16.0.0, SVG Export Plug-In . SVG Version: 6.00 Build 0)  -->
<!DOCTYPE svg PUBLIC "-//W3C//DTD SVG 1.1//EN" "http://www.w3.org/Graphics/SVG/1.1/DTD/svg11.dtd">
<svg version="1.1" id="Layer_1" xmlns="http://www.w3.org/2000/svg" xmlns:xlink="http://www.w3.org/1999/xlink" x="0px" y="0px"
	 width="1190.55px" height="841.89px" viewBox="0 0 1190.55 841.89" enable-background="new 0 0 1190.55 841.89"
	 xml:space="preserve">
<g>
	<polygon fill="#82C49E" points="419.627,399.5 458.043,399.509 435.404,355.232 	"/>
	<polygon fill="#74C9E6" points="769.575,399.451 733.11,399.509 753.32,355.194 	"/>
	<g>
		<g>
			
				<image overflow="visible" opacity="0.5" width="1455" height="672" xlink:href="9229028A.png"  transform="matrix(0.24 0 0 0.24 423.9766 343.04)">
			</image>
			<g>
				<linearGradient id="SVGID_1_" gradientUnits="userSpaceOnUse" x1="436" y1="420.688" x2="755" y2="420.688">
					<stop  offset="0" style="stop-color:#97BB33"/>
					<stop  offset="0.1429" style="stop-color:#96BB37"/>
					<stop  offset="0.2815" style="stop-color:#93BB43"/>
					<stop  offset="0.4185" style="stop-color:#8EBC56"/>
					<stop  offset="0.5544" style="stop-color:#87BC71"/>
					<stop  offset="0.6896" style="stop-color:#7DBD95"/>
					<stop  offset="0.8224" style="stop-color:#72BEBF"/>
					<stop  offset="0.9255" style="stop-color:#68BFE6"/>
				</linearGradient>
				<polygon fill="url(#SVGID_1_)" points="755,486.318 755,355 436,355 436,486.125 593.28,457.519 752.589,486.376 				"/>
			</g>
		</g>
	</g>
	<g>
		<path fill="#FFFFFF" d="M530.401,399.15v-3.105l10.983-17.426h-10.516v-3.238h14.755v2.938l-11.049,17.594h11.049v3.238H530.401z"
			/>
		<path fill="#FFFFFF" d="M559.045,399.15v-1.536c-1.235,1.235-2.404,1.736-4.507,1.736c-2.104,0-3.505-0.5-4.541-1.536
			c-0.868-0.901-1.335-2.204-1.335-3.639c0-2.838,1.97-4.875,5.842-4.875h4.473V388.1c0-2.137-1.068-3.172-3.705-3.172
			c-1.87,0-2.771,0.434-3.706,1.636l-2.236-2.104c1.603-1.87,3.272-2.437,6.076-2.437c4.641,0,6.977,1.97,6.977,5.809v11.317
			H559.045z M558.978,391.672h-3.972c-2.003,0-3.038,0.901-3.038,2.437c0,1.536,0.968,2.404,3.104,2.404
			c1.302,0,2.271-0.101,3.172-0.969c0.5-0.5,0.734-1.302,0.734-2.504V391.672z"/>
		<path fill="#FFFFFF" d="M572.666,399.15c-3.171,0-4.641-2.271-4.641-4.708v-9.314h-1.936v-2.604h1.936v-5.141h3.405v5.141h3.272
			v2.604h-3.272v9.147c0,1.235,0.601,1.97,1.87,1.97h1.402v2.905H572.666z"/>
		<path fill="#FFFFFF" d="M581.446,391.672c0,2.904,1.536,4.74,4.306,4.74c1.904,0,2.905-0.534,4.107-1.736l2.17,2.037
			c-1.736,1.736-3.372,2.637-6.343,2.637c-4.24,0-7.612-2.237-7.612-8.68c0-5.475,2.838-8.646,7.178-8.646
			c4.541,0,7.178,3.338,7.178,8.146v1.502H581.446z M588.591,386.998c-0.534-1.269-1.736-2.137-3.339-2.137
			s-2.838,0.868-3.372,2.137c-0.334,0.768-0.401,1.269-0.434,2.303h7.611C589.024,388.267,588.925,387.766,588.591,386.998z"/>
		<path fill="#FFFFFF" d="M606.25,386.197c-0.768-0.768-1.368-1.135-2.537-1.135c-1.836,0-3.371,1.469-3.371,3.806v10.282h-3.405
			v-16.926h3.338v1.836c0.868-1.202,2.604-2.037,4.508-2.037c1.636,0,2.87,0.434,4.039,1.603L606.25,386.197z"/>
		<path fill="#FFFFFF" d="M620.272,399.15v-1.803c-1.269,1.536-2.637,2.003-4.473,2.003c-1.703,0-3.205-0.568-4.14-1.502
			c-1.703-1.703-1.904-4.607-1.904-7.178c0-2.57,0.201-5.441,1.904-7.144c0.935-0.935,2.403-1.502,4.106-1.502
			c1.802,0,3.204,0.434,4.439,1.903v-8.546h3.405v23.77H620.272z M616.701,385.062c-3.071,0-3.54,2.604-3.54,5.608
			c0,3.005,0.469,5.642,3.54,5.642s3.505-2.637,3.505-5.642C620.206,387.666,619.772,385.062,616.701,385.062z"/>
		<path fill="#FFFFFF" d="M638.134,399.15v-1.536c-1.235,1.235-2.403,1.736-4.507,1.736s-3.505-0.5-4.541-1.536
			c-0.867-0.901-1.335-2.204-1.335-3.639c0-2.838,1.97-4.875,5.843-4.875h4.473V388.1c0-2.137-1.067-3.172-3.705-3.172
			c-1.87,0-2.771,0.434-3.706,1.636l-2.236-2.104c1.603-1.87,3.271-2.437,6.076-2.437c4.64,0,6.977,1.97,6.977,5.809v11.317H638.134
			z M638.066,391.672h-3.973c-2.002,0-3.037,0.901-3.037,2.437c0,1.536,0.968,2.404,3.104,2.404c1.302,0,2.271-0.101,3.172-0.969
			c0.5-0.5,0.733-1.302,0.733-2.504V391.672z"/>
		<path fill="#FFFFFF" d="M652.39,406.194c-2.571,0-4.207-0.601-5.976-2.237l2.17-2.17c1.067,1.001,2.002,1.502,3.672,1.502
			c2.871,0,3.973-2.036,3.973-4.306v-2.17c-1.235,1.469-2.638,1.936-4.374,1.936c-1.702,0-3.104-0.567-4.039-1.502
			c-1.636-1.636-1.903-4.006-1.903-6.877s0.268-5.242,1.903-6.877c0.935-0.935,2.37-1.469,4.072-1.469
			c1.804,0,3.172,0.468,4.44,2.003v-1.803h3.306v16.826C659.634,403.189,656.896,406.194,652.39,406.194z M652.79,385.062
			c-3.072,0-3.473,2.637-3.473,5.308c0,2.67,0.4,5.308,3.473,5.308c3.071,0,3.438-2.638,3.438-5.308
			C656.229,387.699,655.861,385.062,652.79,385.062z"/>
		<path fill="#FFFFFF" d="M530.501,439.213v-3.039l9.147-11.116c0.901-1.102,1.269-1.97,1.269-3.171
			c0-2.137-1.269-3.606-3.472-3.606c-1.803,0-3.505,1.002-3.505,3.672h-3.405c0-4.04,2.872-6.71,6.911-6.71
			c4.073,0,6.877,2.57,6.877,6.677c0,2.103-0.768,3.338-2.236,5.141l-7.445,9.113h9.681v3.039H530.501z"/>
		<path fill="#FFFFFF" d="M555.106,439.412c-4.107,0-7.044-2.703-7.044-7.11c0-1.937,0.734-3.772,1.77-5.843l5.408-11.016h3.639
			l-5.108,10.215c0.634-0.268,1.369-0.367,2.104-0.367c3.438,0,6.242,2.704,6.242,6.877
			C562.116,436.541,559.212,439.412,555.106,439.412z M555.073,428.129c-2.137,0-3.606,1.535-3.606,4.105
			c0,2.537,1.469,4.141,3.606,4.141c2.136,0,3.638-1.604,3.638-4.141C558.711,429.898,557.342,428.129,555.073,428.129z"/>
		<path fill="#FFFFFF" d="M595.334,439.213v-10.316c0-2.637-1.502-3.772-3.405-3.772c-1.836,0-3.506,1.169-3.506,3.605v10.483
			h-3.405v-10.316c0-2.637-1.502-3.772-3.405-3.772c-1.902,0-3.505,1.169-3.505,3.772v10.316h-3.405v-16.926h3.338v1.702
			c1.135-1.235,2.805-1.903,4.507-1.903c2.103,0,3.738,0.835,4.807,2.471c1.368-1.669,3.071-2.471,5.308-2.471
			c1.736,0,3.271,0.567,4.273,1.535c1.302,1.27,1.803,2.871,1.803,4.774v10.817H595.334z"/>
		<path fill="#FFFFFF" d="M613.096,439.213v-1.536c-1.235,1.235-2.404,1.735-4.507,1.735c-2.104,0-3.506-0.5-4.541-1.535
			c-0.868-0.901-1.335-2.203-1.335-3.639c0-2.838,1.97-4.875,5.842-4.875h4.475v-1.201c0-2.137-1.069-3.172-3.706-3.172
			c-1.87,0-2.771,0.434-3.706,1.637l-2.236-2.104c1.603-1.87,3.271-2.438,6.075-2.438c4.641,0,6.978,1.97,6.978,5.809v11.318
			H613.096z M613.029,431.734h-3.974c-2.003,0-3.038,0.901-3.038,2.437c0,1.536,0.969,2.404,3.104,2.404
			c1.303,0,2.271-0.101,3.172-0.969c0.501-0.501,0.735-1.302,0.735-2.504V431.734z"/>
		<path fill="#FFFFFF" d="M630.79,439.213v-1.536c-1.235,1.235-2.404,1.735-4.508,1.735c-2.103,0-3.505-0.5-4.54-1.535
			c-0.868-0.901-1.336-2.203-1.336-3.639c0-2.838,1.971-4.875,5.843-4.875h4.474v-1.201c0-2.137-1.068-3.172-3.705-3.172
			c-1.87,0-2.771,0.434-3.706,1.637l-2.237-2.104c1.604-1.87,3.272-2.438,6.076-2.438c4.641,0,6.978,1.97,6.978,5.809v11.318H630.79
			z M630.723,431.734h-3.973c-2.003,0-3.038,0.901-3.038,2.437c0,1.536,0.968,2.404,3.104,2.404c1.302,0,2.271-0.101,3.172-0.969
			c0.501-0.501,0.734-1.302,0.734-2.504V431.734z"/>
		<path fill="#FFFFFF" d="M648.684,426.26c-0.768-0.769-1.368-1.136-2.537-1.136c-1.836,0-3.372,1.47-3.372,3.806v10.283h-3.405
			v-16.926h3.339v1.836c0.868-1.202,2.604-2.037,4.507-2.037c1.637,0,2.871,0.434,4.039,1.603L648.684,426.26z"/>
		<path fill="#FFFFFF" d="M659.066,439.213c-3.171,0-4.641-2.271-4.641-4.708v-9.314h-1.936v-2.604h1.936v-5.141h3.405v5.141h3.272
			v2.604h-3.272v9.147c0,1.235,0.602,1.97,1.87,1.97h1.402v2.905H659.066z"/>
	</g>
</g>
</svg>
